# xmcd CD database file
#
# Track frame offsets:
#	150
#	26520
#	51837
#	86028
#	115753
#	134073
#	163370
#	183480
#	210367
#	232353
#
# Disc length: 3363 seconds
#
# Revision: 0
# Processed by: cddbd v1.5.1PL0 Copyright (c) Steve Scherf et al.
# Submitted via: CDex 1.60beta1
#
DISCID=920d210a
DTITLE=mas - steppers+
DYEAR=2005
DGENRE=Jazz
TTITLE0=trivial joke
TTITLE1=circus (joint origami)
TTITLE2=bring on
TTITLE3=cael rock
TTITLE4=fadomi
TTITLE5=a beauty pear - tokyo zawinul bach remix
TTITLE6=tick - beige remix
TTITLE7=smood - pasadena remix
TTITLE8=hokama bass - mokira remix
TTITLE9=turn - kazumasa hashimoto remix
EXTD=YEAR: 2005
EXTT0=
EXTT1=
EXTT2=
EXTT3=
EXTT4=
EXTT5=
EXTT6=
EXTT7=
EXTT8=
EXTT9=
PLAYORDER=
